<svg id="kity_svg_6" xmlns="http://www.w3.org/2000/svg" xmlns:xlink="http://www.w3.org/1999/xlink" version="1.1" width="783" height="570" style="background: rgb(251, 251, 251); visibility: visible;" viewBox="0 0 783 570"><defs id="kity_defs_7"><linearGradient id="kity_linearGradient_17" x1="0" y1="0" x2="0" y2="1"><stop id="kity_stop_18" offset="0" stop-color="rgb(255, 255, 255)"></stop><stop id="kity_stop_19" offset="1" stop-color="rgb(204, 204, 204)"></stop></linearGradient><marker id="kity_marker_2" orient="auto" refX="6" refY="0" viewBox="-7 -7 14 14" markerWidth="7" markerHeight="7" markerUnits="userSpaceOnUse"><path id="kity_path_3" fill="rgb(115, 161, 191)" stroke="none" d="M6,0A6,6,0,1,1,-6,0A6,6,0,1,1,6,0"></path></marker></defs><g id="kity_g_8"><g id="minder1" text-rendering="optimize-speed"><g id="minder_connect_group1"><path id="kity_path_31" fill="none" stroke="rgb(115, 161, 191)" stroke-width="1" d="M369,263.5A127.5,222,0,0,1,241.5,485.5"></path><path id="kity_path_47" fill="none" stroke="rgb(115, 161, 191)" stroke-width="1" d="M369,263.5A169.5,170,0,0,0,199.5,93.5"></path><path id="kity_path_49" fill="none" stroke="rgb(115, 161, 191)" stroke-width="1" d="M369,263.5A166.5,197,0,0,1,535.5,66.5"></path><path id="kity_path_57" fill="none" stroke="rgb(115, 161, 191)" stroke-width="1" d="M369,263.5A167.5,7,0,0,1,201.5,270.5"></path><path id="kity_path_67" fill="none" stroke="rgb(115, 161, 191)" stroke-width="1" d="M369,263.5A172.5,61,0,0,0,541.5,324.5"></path><path id="kity_path_81" fill="none" stroke="rgb(115, 161, 191)" stroke-width="1" d="M369,263.5A175.5,247,0,0,0,544.5,510.5"></path><path id="kity_path_266" fill="none" stroke="rgb(115, 161, 191)" stroke-width="1" d="M131.5,270.5C116.5,270.5,116.5,206.5,101.5,206.5L20.5,206.5"></path><path id="kity_path_267" fill="none" stroke="rgb(115, 161, 191)" stroke-width="1" d="M131.5,270.5C116.5,270.5,116.5,258.5,101.5,258.5L34.5,258.5"></path><path id="kity_path_268" fill="none" stroke="rgb(115, 161, 191)" stroke-width="1" d="M131.5,270.5C116.5,270.5,116.5,310.5,101.5,310.5L60.5,310.5"></path><path id="kity_path_269" fill="none" stroke="rgb(115, 161, 191)" stroke-width="1" d="M131.5,270.5C116.5,270.5,116.5,362.5,101.5,362.5L41.5,362.5"></path><path id="kity_path_270" fill="none" stroke="rgb(115, 161, 191)" stroke-width="1" d="M606.5,66.5C622.5,66.5,622.5,45.5,638.5,45.5L705.5,45.5"></path><path id="kity_path_271" fill="none" stroke="rgb(115, 161, 191)" stroke-width="1" d="M606.5,66.5C621.5,66.5,621.5,94.5,636.5,94.5L713.5,94.5"></path><path id="kity_path_272" fill="none" stroke="rgb(115, 161, 191)" stroke-width="1" d="M613.5,324.5C641,324.5,641,161.5,668.5,161.5L720.5,161.5"></path><path id="kity_path_273" fill="none" stroke="rgb(115, 161, 191)" stroke-width="1" d="M613.5,324.5C641,324.5,641,218.5,668.5,218.5L724.5,218.5"></path><path id="kity_path_274" fill="none" stroke="rgb(115, 161, 191)" stroke-width="1" d="M613.5,324.5C642.5,324.5,642.5,270.5,671.5,270.5L744.5,270.5"></path><path id="kity_path_275" fill="none" stroke="rgb(115, 161, 191)" stroke-width="1" d="M613.5,324.5C642.5,324.5,642.5,328.5,671.5,328.5L743.5,328.5"></path><path id="kity_path_276" fill="none" stroke="rgb(115, 161, 191)" stroke-width="1" d="M613.5,324.5C643,324.5,643,377.5,672.5,377.5L762.5,377.5"></path><path id="kity_path_277" fill="none" stroke="rgb(115, 161, 191)" stroke-width="1" d="M613.5,324.5C642.5,324.5,642.5,424.5,671.5,424.5L752.5,424.5"></path><path id="kity_path_278" fill="none" stroke="rgb(115, 161, 191)" stroke-width="1" d="M644.5,510.5C659.5,510.5,659.5,498.5,674.5,498.5L759.5,498.5"></path><path id="kity_path_279" fill="none" stroke="rgb(115, 161, 191)" stroke-width="1" d="M644.5,510.5C659.5,510.5,659.5,550.5,674.5,550.5L763.5,550.5"></path></g><g id="minder_node1"><path id="node_outline1" fill="rgb(115, 161, 191)" stroke="rgb(115, 161, 191)" d="M311.5,243.5h115a5,5,0,0,1,5,5v30a5,5,0,0,1,-5,5h-115a5,5,0,0,1,-5,-5v-30a5,5,0,0,1,5,-5z" stroke-width="3"></path><g id="node_text1" fill="white"><text id="kity_text_22" text-rendering="inherit" font-size="16" dy=".8em" y="253.09999990463257" x="330.5">ai4plasma</text></g></g><g id="kity_g_12" display="none"><path id="kity_path_13" fill="none" stroke="none" d="M330.5,263.5h0v0h0z"></path></g><g id="kity_g_14" display="none"><path id="kity_path_15" fill="rgba(0, 92, 153, 0.5)" stroke="none" d="M583.5,-175.5h69v20h-69z"></path><path id="kity_path_16" fill="none" stroke="rgb(0, 76, 128)" d="M583.5,-155.5L652.5,-155.5" stroke-width="1"></path></g><g id="minder_node2" opacity="1"><g id="node_expander8" style="cursor: pointer;" display="none"><path id="kity_path_192" fill="white" stroke="gray" d="M96.5,485.5A6,6,0,1,1,84.5,485.5A6,6,0,1,1,96.5,485.5"></path><path id="kity_path_193" fill="none" stroke="gray" d="M86,485.5L95,485.5"></path></g><path id="node_outline9" fill="rgb(238, 243, 246)" stroke="rgb(115, 161, 191)" d="M100.5,472.5h136a3,3,0,0,1,3,3v20a3,3,0,0,1,-3,3h-136a3,3,0,0,1,-3,-3v-20a3,3,0,0,1,3,-3z" stroke-width="1"></path><g id="node_text9" fill="black"><text id="kity_text_101" text-rendering="inherit" font-size="14" dy=".8em" y="476.40000009536743" x="117.5">app (examples)</text></g></g><g id="minder_node10" opacity="1"><g id="node_expander9" style="cursor: pointer;" display="none"><path id="kity_path_195" fill="white" stroke="gray" d="M94.5,93.5A6,6,0,1,1,82.5,93.5A6,6,0,1,1,94.5,93.5"></path><path id="kity_path_196" fill="none" stroke="gray"></path></g><path id="node_outline10" fill="rgb(238, 243, 246)" stroke="rgb(115, 161, 191)" d="M98.5,80.5h96a3,3,0,0,1,3,3v20a3,3,0,0,1,-3,3h-96a3,3,0,0,1,-3,-3v-20a3,3,0,0,1,3,-3z" stroke-width="1"></path><g id="node_text10" fill="black"><text id="kity_text_103" text-rendering="inherit" font-size="14" dy=".8em" y="84.40000009536743" x="115.5">config.py</text></g></g><g id="minder_node11" opacity="1"><g id="node_expander13" style="cursor: pointer;"><path id="kity_path_207" fill="white" stroke="gray" d="M536.5,66.5A6,6,0,1,1,524.5,66.5A6,6,0,1,1,536.5,66.5"></path><path id="kity_path_208" fill="none" stroke="gray" d="M526,66.5L535,66.5"></path></g><path id="node_outline14" fill="rgb(238, 243, 246)" stroke="rgb(115, 161, 191)" d="M540.5,53.5h63a3,3,0,0,1,3,3v20a3,3,0,0,1,-3,3h-63a3,3,0,0,1,-3,-3v-20a3,3,0,0,1,3,-3z" stroke-width="1"></path><g id="node_text14" fill="black"><text id="kity_text_111" text-rendering="inherit" font-size="14" dy=".8em" y="57.40000009536743" x="557.5">core</text></g></g><g id="minder_node15" opacity="1"><g id="node_expander18" style="cursor: pointer;"><path id="kity_path_222" fill="white" stroke="gray" d="M212.5,270.5A6,6,0,1,1,200.5,270.5A6,6,0,1,1,212.5,270.5"></path><path id="kity_path_223" fill="none" stroke="gray" d="M202,270.5L211,270.5"></path></g><path id="node_outline19" fill="rgb(238, 243, 246)" stroke="rgb(115, 161, 191)" d="M134.5,257.5h62a3,3,0,0,1,3,3v20a3,3,0,0,1,-3,3h-62a3,3,0,0,1,-3,-3v-20a3,3,0,0,1,3,-3z" stroke-width="1"></path><g id="node_text19" fill="black"><text id="kity_text_121" text-rendering="inherit" font-size="14" dy=".8em" y="261.40000009536743" x="151.5">utils</text></g></g><g id="minder_node20" opacity="1"><g id="node_expander25" style="cursor: pointer;"><path id="kity_path_243" fill="white" stroke="gray" d="M626.5,324.5A6,6,0,1,1,614.5,324.5A6,6,0,1,1,626.5,324.5"></path><path id="kity_path_244" fill="none" stroke="gray" d="M616,324.5L625,324.5"></path></g><path id="node_outline26" fill="rgb(238, 243, 246)" stroke="rgb(115, 161, 191)" d="M546.5,311.5h64a3,3,0,0,1,3,3v20a3,3,0,0,1,-3,3h-64a3,3,0,0,1,-3,-3v-20a3,3,0,0,1,3,-3z" stroke-width="1"></path><g id="node_text26" fill="black"><text id="kity_text_135" text-rendering="inherit" font-size="14" dy=".8em" y="315.40000009536743" x="563.5">piml</text></g></g><g id="minder_node27" opacity="1"><g id="node_expander28" style="cursor: pointer;"><path id="kity_path_252" fill="white" stroke="gray" d="M657.5,510.5A6,6,0,1,1,645.5,510.5A6,6,0,1,1,657.5,510.5"></path><path id="kity_path_253" fill="none" stroke="gray" d="M647,510.5L656,510.5"></path></g><path id="node_outline29" fill="rgb(238, 243, 246)" stroke="rgb(57, 80, 96)" d="M549.5,497.5h92a3,3,0,0,1,3,3v20a3,3,0,0,1,-3,3h-92a3,3,0,0,1,-3,-3v-20a3,3,0,0,1,3,-3z" stroke-width="3"></path><g id="node_text29" fill="black"><text id="kity_text_141" text-rendering="inherit" font-size="14" dy=".8em" y="501.40000009536743" x="566.5">operator</text></g></g><g id="minder_node16"><g id="node_expander14" style="cursor: pointer;" display="none"><path id="kity_path_210" fill="white" stroke="gray" d="M103.5,192.5A6,6,0,1,1,91.5,192.5A6,6,0,1,1,103.5,192.5"></path><path id="kity_path_211" fill="none" stroke="gray"></path></g><path id="node_outline15" fill="none" stroke="none" d="M25.5,181.5h61a5,5,0,0,1,5,5v12a5,5,0,0,1,-5,5h-61a5,5,0,0,1,-5,-5v-12a5,5,0,0,1,5,-5z"></path><g id="node_text15" fill="black"><text id="kity_text_113" text-rendering="inherit" font-size="12" dy=".8em" y="184.70000004768372" x="30.5">common</text></g></g><g id="minder_node17"><g id="node_expander15" style="cursor: pointer;" display="none"><path id="kity_path_213" fill="white" stroke="gray" d="M103.5,244.5A6,6,0,1,1,91.5,244.5A6,6,0,1,1,103.5,244.5"></path><path id="kity_path_214" fill="none" stroke="gray"></path></g><path id="node_outline16" fill="none" stroke="none" d="M39.5,233.5h47a5,5,0,0,1,5,5v12a5,5,0,0,1,-5,5h-47a5,5,0,0,1,-5,-5v-12a5,5,0,0,1,5,-5z"></path><g id="node_text16" fill="black"><text id="kity_text_115" text-rendering="inherit" font-size="12" dy=".8em" y="236.70000004768372" x="44.5">device</text></g></g><g id="minder_node18"><g id="node_expander16" style="cursor: pointer;" display="none"><path id="kity_path_216" fill="white" stroke="gray" d="M103.5,296.5A6,6,0,1,1,91.5,296.5A6,6,0,1,1,103.5,296.5"></path><path id="kity_path_217" fill="none" stroke="gray"></path></g><path id="node_outline17" fill="none" stroke="none" d="M65.5,285.5h21a5,5,0,0,1,5,5v12a5,5,0,0,1,-5,5h-21a5,5,0,0,1,-5,-5v-12a5,5,0,0,1,5,-5z"></path><g id="node_text17" fill="black"><text id="kity_text_117" text-rendering="inherit" font-size="12" dy=".8em" y="288.7000000476837" x="70.5">io</text></g></g><g id="minder_node19"><g id="node_expander17" style="cursor: pointer;" display="none"><path id="kity_path_219" fill="white" stroke="gray" d="M103.5,348.5A6,6,0,1,1,91.5,348.5A6,6,0,1,1,103.5,348.5"></path><path id="kity_path_220" fill="none" stroke="gray"></path></g><path id="node_outline18" fill="none" stroke="none" d="M46.5,337.5h40a5,5,0,0,1,5,5v12a5,5,0,0,1,-5,5h-40a5,5,0,0,1,-5,-5v-12a5,5,0,0,1,5,-5z"></path><g id="node_text18" fill="black"><text id="kity_text_119" text-rendering="inherit" font-size="12" dy=".8em" y="340.7000000476837" x="51.5">math</text></g></g><g id="minder_node12"><g id="node_expander10" style="cursor: pointer;" display="none"><path id="kity_path_198" fill="white" stroke="gray" d="M648.5,31.5A6,6,0,1,1,636.5,31.5A6,6,0,1,1,648.5,31.5"></path><path id="kity_path_199" fill="none" stroke="gray"></path></g><path id="node_outline11" fill="none" stroke="none" d="M653.5,20.5h47a5,5,0,0,1,5,5v12a5,5,0,0,1,-5,5h-47a5,5,0,0,1,-5,-5v-12a5,5,0,0,1,5,-5z"></path><g id="node_text11" fill="black"><text id="kity_text_105" text-rendering="inherit" font-size="12" dy=".8em" y="23.700000047683716" x="658.5">model</text></g></g><g id="minder_node13"><g id="node_expander11" style="cursor: pointer;" display="none"><path id="kity_path_201" fill="white" stroke="gray" d="M646.5,80.5A6,6,0,1,1,634.5,80.5A6,6,0,1,1,646.5,80.5"></path><path id="kity_path_202" fill="none" stroke="gray"></path></g><path id="node_outline12" fill="none" stroke="none" d="M651.5,69.5h57a5,5,0,0,1,5,5v12a5,5,0,0,1,-5,5h-57a5,5,0,0,1,-5,-5v-12a5,5,0,0,1,5,-5z" stroke-width="3"></path><g id="node_text12" fill="black"><text id="kity_text_107" text-rendering="inherit" font-size="12" dy=".8em" y="72.70000004768372" x="656.5">network</text></g></g><g id="minder_node21"><g id="node_expander19" style="cursor: pointer;" display="none"><path id="kity_path_225" fill="white" stroke="gray" d="M678.5,147.5A6,6,0,1,1,666.5,147.5A6,6,0,1,1,678.5,147.5"></path><path id="kity_path_226" fill="none" stroke="gray"></path></g><path id="node_outline20" fill="none" stroke="none" d="M683.5,136.5h32a5,5,0,0,1,5,5v12a5,5,0,0,1,-5,5h-32a5,5,0,0,1,-5,-5v-12a5,5,0,0,1,5,-5z"></path><g id="node_text20" fill="black"><text id="kity_text_123" text-rendering="inherit" font-size="12" dy=".8em" y="139.70000004768372" x="688.5">geo</text></g></g><g id="minder_node22"><g id="node_expander20" style="cursor: pointer;" display="none"><path id="kity_path_228" fill="white" stroke="gray" d="M678.5,204.5A6,6,0,1,1,666.5,204.5A6,6,0,1,1,678.5,204.5"></path><path id="kity_path_229" fill="none" stroke="gray"></path></g><path id="node_outline21" fill="none" stroke="none" d="M683.5,193.5h36a5,5,0,0,1,5,5v12a5,5,0,0,1,-5,5h-36a5,5,0,0,1,-5,-5v-12a5,5,0,0,1,5,-5z"></path><g id="node_text21" fill="black"><text id="kity_text_125" text-rendering="inherit" font-size="12" dy=".8em" y="196.70000004768372" x="688.5">pinn</text></g></g><g id="minder_node23"><g id="node_expander21" style="cursor: pointer;" display="none"><path id="kity_path_231" fill="white" stroke="gray" d="M681.5,256.5A6,6,0,1,1,669.5,256.5A6,6,0,1,1,681.5,256.5"></path><path id="kity_path_232" fill="none" stroke="gray"></path></g><path id="node_outline22" fill="none" stroke="none" d="M686.5,245.5h53a5,5,0,0,1,5,5v12a5,5,0,0,1,-5,5h-53a5,5,0,0,1,-5,-5v-12a5,5,0,0,1,5,-5z" stroke-width="3"></path><g id="node_text22" fill="black"><text id="kity_text_127" text-rendering="inherit" font-size="12" dy=".8em" y="248.70000004768372" x="691.5">cs_pinn</text></g></g><g id="minder_node24"><g id="node_expander22" style="cursor: pointer;" display="none"><path id="kity_path_234" fill="white" stroke="gray" d="M681.5,314.5A6,6,0,1,1,669.5,314.5A6,6,0,1,1,681.5,314.5"></path><path id="kity_path_235" fill="none" stroke="gray"></path></g><path id="node_outline23" fill="none" stroke="none" d="M686.5,303.5h52a5,5,0,0,1,5,5v12a5,5,0,0,1,-5,5h-52a5,5,0,0,1,-5,-5v-12a5,5,0,0,1,5,-5z"></path><g id="node_text23" fill="black"><text id="kity_text_129" text-rendering="inherit" font-size="12" dy=".8em" y="306.7000000476837" x="691.5">rk_pinn</text></g></g><g id="minder_node25" opacity="1"><g id="node_expander23" style="cursor: pointer;" display="none"><path id="kity_path_237" fill="white" stroke="gray" d="M682.5,363.5A6,6,0,1,1,670.5,363.5A6,6,0,1,1,682.5,363.5"></path><path id="kity_path_238" fill="none" stroke="gray"></path></g><path id="node_outline24" fill="none" stroke="none" d="M687.5,352.5h70a5,5,0,0,1,5,5v12a5,5,0,0,1,-5,5h-70a5,5,0,0,1,-5,-5v-12a5,5,0,0,1,5,-5z" stroke-width="3"></path><g id="node_text24" fill="black"><text id="kity_text_131" text-rendering="inherit" font-size="12" dy=".8em" y="355.7000000476837" x="692.5">meta_pinn</text></g></g><g id="minder_node26" opacity="1"><g id="node_expander24" style="cursor: pointer;" display="none"><path id="kity_path_240" fill="white" stroke="gray" d="M681.5,410.5A6,6,0,1,1,669.5,410.5A6,6,0,1,1,681.5,410.5"></path><path id="kity_path_241" fill="none" stroke="gray"></path></g><path id="node_outline25" fill="none" stroke="none" d="M686.5,399.5h61a5,5,0,0,1,5,5v12a5,5,0,0,1,-5,5h-61a5,5,0,0,1,-5,-5v-12a5,5,0,0,1,5,-5z" stroke-width="3"></path><g id="node_text25" fill="black"><text id="kity_text_133" text-rendering="inherit" font-size="12" dy=".8em" y="402.7000000476837" x="691.5">nas_pinn</text></g></g><g id="minder_node28"><g id="node_expander26" style="cursor: pointer;" display="none"><path id="kity_path_246" fill="white" stroke="gray" d="M684.5,484.5A6,6,0,1,1,672.5,484.5A6,6,0,1,1,684.5,484.5"></path><path id="kity_path_247" fill="none" stroke="gray"></path></g><path id="node_outline27" fill="none" stroke="none" d="M689.5,473.5h65a5,5,0,0,1,5,5v12a5,5,0,0,1,-5,5h-65a5,5,0,0,1,-5,-5v-12a5,5,0,0,1,5,-5z"></path><g id="node_text27" fill="black"><text id="kity_text_137" text-rendering="inherit" font-size="12" dy=".8em" y="476.7000000476837" x="694.5">deeponet</text></g></g><g id="minder_node29"><g id="node_expander27" style="cursor: pointer;" display="none"><path id="kity_path_249" fill="white" stroke="gray" d="M684.5,536.5A6,6,0,1,1,672.5,536.5A6,6,0,1,1,684.5,536.5"></path><path id="kity_path_250" fill="none" stroke="gray"></path></g><path id="node_outline28" fill="none" stroke="none" d="M689.5,525.5h69a5,5,0,0,1,5,5v12a5,5,0,0,1,-5,5h-69a5,5,0,0,1,-5,-5v-12a5,5,0,0,1,5,-5z"></path><g id="node_text28" fill="black"><text id="kity_text_139" text-rendering="inherit" font-size="12" dy=".8em" y="528.7000000476837" x="694.5">deepcsnet</text></g></g></g></g></svg>